<svg version="1.1" id="Layer_1" xmlns="http://www.w3.org/2000/svg" xmlns:xlink="http://www.w3.org/1999/xlink" x="0px" y="0px"
	 width="100%" viewBox="32 340 950 321" enable-background="new 32 340 950 321" xml:space="preserve">
<style>
  path:not([fill="none"]) { fill: #000; }
  @media (prefers-color-scheme: dark) {
    path:not([fill="none"]) { fill: #fff; }
  }
</style>
<path fill="none" opacity="1.000000" stroke="none" 
	d="
M484.000000,1001.000000 
	C322.666656,1001.000000 161.833328,1001.000000 1.000000,1001.000000 
	C1.000000,667.666687 1.000000,334.333344 1.000000,1.000000 
	C334.333344,1.000000 667.666687,1.000000 1001.000000,1.000000 
	C1001.000000,334.333344 1001.000000,667.666687 1001.000000,1001.000000 
	C828.833313,1001.000000 656.666687,1001.000000 484.000000,1001.000000 
M104.500000,569.000000 
	C87.833366,569.000000 71.152878,569.424072 54.504009,568.880188 
	C37.997501,568.340942 20.025230,586.027893 20.923658,602.631897 
	C21.364256,610.774658 21.198612,618.966858 20.957958,627.126404 
	C20.481705,643.273987 37.754112,660.077209 53.755486,660.071960 
	C351.586945,659.973938 649.418518,659.940491 947.249817,660.158142 
	C963.883240,660.170349 982.096985,642.970764 981.082214,626.117432 
	C980.602295,618.146362 980.741333,610.112305 981.054199,602.124634 
	C981.690918,585.868591 964.161804,568.895691 947.994690,568.903442 
	C667.163147,569.037292 386.331573,569.000000 104.500000,569.000000 
M370.973602,354.465607 
	C361.052490,348.342651 350.268982,345.863739 338.618683,345.934479 
	C307.131195,346.125824 275.641815,346.000000 244.153168,346.000000 
	C242.541122,346.000000 240.929062,346.000000 239.214050,346.000000 
	C239.214050,410.523956 239.214050,474.579376 239.214050,539.000000 
	C241.047852,539.000000 242.673309,539.000000 244.298752,539.000000 
	C271.622223,539.000000 298.947174,539.167725 326.268494,538.924438 
	C338.666992,538.814087 351.135406,538.474670 363.194305,534.979980 
	C378.390747,530.576050 391.057556,522.774475 397.986298,507.817902 
	C402.292114,498.523193 403.525055,488.916046 402.237854,478.540771 
	C400.997040,468.539032 398.724487,459.055511 392.833374,451.039368 
	C388.659515,445.359833 382.992310,440.777771 378.641571,436.364990 
	C381.371399,432.843842 385.116516,428.945679 387.762390,424.406738 
	C393.321411,414.870483 393.521484,404.174835 392.968353,393.519226 
	C392.122223,377.218140 385.734589,363.894989 370.973602,354.465607 
M46.944809,424.476501 
	C52.412697,434.070831 60.758385,439.951172 70.853867,444.106384 
	C85.725380,450.227448 101.477669,449.552948 116.964149,450.955780 
	C126.927902,451.858307 137.023087,451.717346 146.885315,453.200989 
	C154.423050,454.334930 161.579529,457.771790 165.435303,465.007416 
	C175.188309,483.309631 164.753555,499.369812 147.924332,506.901337 
	C135.987656,512.243347 123.223289,513.188354 110.194664,513.155640 
	C97.005112,513.122498 85.330849,508.825256 74.711479,501.892487 
	C68.047539,497.542053 62.519188,491.436432 56.561413,486.030029 
	C54.884602,484.508392 53.633984,482.865295 51.256489,485.178650 
	C45.254684,491.018646 39.105331,496.707031 32.321434,503.110962 
	C39.059437,509.410034 45.195072,515.886475 52.081730,521.429993 
	C66.449905,532.995911 83.171547,540.032776 101.381920,541.718506 
	C115.543091,543.029419 130.047867,543.048584 144.029617,538.972412 
	C160.136642,534.276611 175.073181,527.878967 186.343094,514.369568 
	C201.334106,496.399597 202.240128,470.967346 193.469223,451.154388 
	C186.293167,434.944061 171.424026,428.035431 155.317047,425.308868 
	C139.232758,422.586151 122.717461,422.469025 106.417465,420.930603 
	C100.335495,420.356628 94.166412,419.553009 88.322945,417.864624 
	C78.648476,415.069336 74.045853,408.776367 73.989510,400.055420 
	C73.911751,388.017242 83.506828,377.947296 95.477982,372.945648 
	C103.317024,369.670441 111.438080,370.015594 119.605431,369.982330 
	C135.974747,369.915710 150.116623,375.974243 163.029297,385.521606 
	C166.089981,387.784607 169.170212,390.021149 172.371109,392.364807 
	C178.136551,385.814209 183.652924,379.731964 188.863953,373.398468 
	C189.538452,372.578674 189.217712,369.876556 188.372894,369.033325 
	C179.104782,359.782928 168.380142,352.673370 156.108322,347.983673 
	C141.270508,342.313385 125.905983,340.584320 110.069672,340.893951 
	C89.789200,341.290405 72.620644,348.012848 57.986340,362.325195 
	C41.717617,378.236053 37.337856,403.662323 46.944809,424.476501 
M632.500183,506.000275 
	C624.510986,516.688477 616.521790,527.376709 607.833740,539.000000 
	C618.013733,539.000000 626.834778,538.427551 635.540955,539.181152 
	C642.508972,539.784241 646.771423,537.508301 650.798706,531.902893 
	C663.925964,513.632080 677.534973,495.705994 691.048828,477.715027 
	C695.872986,471.292542 700.954651,465.063446 706.087830,458.530914 
	C713.949402,469.442383 721.416321,479.964783 729.050232,490.364532 
	C740.544922,506.023712 752.147217,521.604004 763.746582,537.185974 
	C764.312805,537.946594 765.284302,538.914673 766.075378,538.922302 
	C777.649475,539.034424 789.224976,538.999329 801.718445,538.999329 
	C799.438660,535.762207 797.757935,533.280029 795.981323,530.868469 
	C784.365234,515.100830 772.684021,499.380920 761.110657,483.582001 
	C749.550537,467.800995 738.159668,451.895416 726.510620,436.180878 
	C724.874695,433.973999 724.835266,432.877655 726.577393,430.772675 
	C730.282898,426.295349 733.546875,421.454010 737.022461,416.784637 
	C750.946838,398.078064 764.902893,379.394989 778.800598,360.668549 
	C782.261658,356.004791 785.548157,351.211426 789.254700,346.000000 
	C777.756409,346.000000 767.257141,345.863403 756.767517,346.120117 
	C754.770142,346.168976 752.146851,347.243652 750.947571,348.749268 
	C745.408203,355.703888 740.313110,363.010315 734.978455,370.130524 
	C725.477234,382.811798 715.918091,395.449677 706.149841,408.415436 
	C705.114685,407.470551 704.137207,406.830780 703.488708,405.949005 
	C689.301025,386.658936 675.162537,367.332672 660.951904,348.059540 
	C660.285095,347.155121 659.045654,346.102448 658.060791,346.090302 
	C646.854492,345.951599 635.645813,346.002228 623.849915,346.002228 
	C633.088318,358.810516 641.894531,370.951752 650.628235,383.144989 
	C662.196533,399.295654 673.639465,415.536957 685.336731,431.593323 
	C686.691589,433.453064 686.553162,434.575165 685.451477,436.030670 
	C677.037659,447.146973 668.571289,458.223541 660.169495,469.348846 
	C651.090881,481.370148 642.064392,493.430817 632.500183,506.000275 
M525.000000,441.500000 
	C525.000000,419.405762 525.000000,397.311523 525.000000,374.824341 
	C547.641418,374.824341 569.714172,374.824341 591.710205,374.824341 
	C591.710205,365.018127 591.710205,355.612427 591.710205,346.286041 
	C537.020081,346.286041 482.620117,346.286041 428.289032,346.286041 
	C428.289032,355.980377 428.289032,365.386047 428.289032,375.182312 
	C451.314819,375.182312 474.054047,375.182312 497.179596,375.182312 
	C497.179596,429.979980 497.179596,484.380920 497.179596,538.710693 
	C506.647797,538.710693 515.720215,538.710693 525.000000,538.710693 
	C525.000000,506.447876 525.000000,474.473938 525.000000,441.500000 
M969.489014,346.000000 
	C919.065979,346.000000 868.642883,346.000000 818.288818,346.000000 
	C818.288818,355.979919 818.288818,365.385651 818.288818,375.182190 
	C841.314575,375.182190 864.053833,375.182190 887.180176,375.182190 
	C887.180176,429.980377 887.180176,484.381653 887.180176,538.710083 
	C896.648926,538.710083 905.721130,538.710083 915.179932,538.710083 
	C915.179932,484.019867 915.179932,429.618591 915.179932,374.822021 
	C937.643677,374.822021 959.716370,374.822021 982.000000,374.822021 
	C982.000000,369.781128 982.000000,365.136597 982.000000,360.492035 
	C982.000000,355.726379 982.000000,350.960724 982.000000,346.000000 
	C977.775085,346.000000 974.128967,346.000000 969.489014,346.000000 
z"/>
<path fill="currentColor" opacity="1.000000" stroke="none" 
	d="
M105.000000,569.000000 
	C386.331573,569.000000 667.163147,569.037292 947.994690,568.903442 
	C964.161804,568.895691 981.690918,585.868591 981.054199,602.124634 
	C980.741333,610.112305 980.602295,618.146362 981.082214,626.117432 
	C982.096985,642.970764 963.883240,660.170349 947.249817,660.158142 
	C649.418518,659.940491 351.586945,659.973938 64.755486,660.071960 
	C48.754112,660.077209 31.481705,643.273987 31.957958,627.126404 
	C32.198612,618.966858 32.364256,610.774658 31.923658,602.631897 
	C31.025230,586.027893 48.997501,568.340942 65.504009,568.880188 
	C71.152878,569.424072 87.833366,569.000000 105.000000,569.000000 
z"/>
<path fill="currentColor" opacity="1.000000" stroke="none" 
	d="
M371.258301,354.712585 
	C385.734589,363.894989 392.122223,377.218140 392.968353,393.519226 
	C393.521484,404.174835 393.321411,414.870483 387.762390,424.406738 
	C385.116516,428.945679 381.371399,432.843842 378.641571,436.364990 
	C382.992310,440.777771 388.659515,445.359833 392.833374,451.039368 
	C398.724487,459.055511 400.997040,468.539032 402.237854,478.540771 
	C403.525055,488.916046 402.292114,498.523193 397.986298,507.817902 
	C391.057556,522.774475 378.390747,530.576050 363.194305,534.979980 
	C351.135406,538.474670 338.666992,538.814087 326.268494,538.924438 
	C298.947174,539.167725 271.622223,539.000000 244.298752,539.000000 
	C242.673309,539.000000 241.047852,539.000000 239.214050,539.000000 
	C239.214050,474.579376 239.214050,410.523956 239.214050,346.000000 
	C240.929062,346.000000 242.541122,346.000000 244.153168,346.000000 
	C275.641815,346.000000 307.131195,346.125824 338.618683,345.934479 
	C350.268982,345.863739 361.052490,348.342651 371.258301,354.712585 
M338.962738,509.547729 
	C347.591370,509.008179 355.677368,507.080780 363.030640,502.065887 
	C375.717804,493.413239 377.731720,474.748810 367.048798,464.395172 
	C360.429565,457.980011 352.488342,455.327301 343.826416,455.118439 
	C327.029114,454.713440 310.192291,454.487396 293.418610,455.235718 
	C286.028931,455.565399 278.733093,458.377258 271.436981,460.228912 
	C268.725861,460.917023 267.874969,462.838593 267.916077,465.788879 
	C268.106140,479.431610 267.991333,493.078430 268.016846,506.723724 
	C268.018860,507.809204 268.257690,508.894226 268.385132,509.968262 
	C291.862274,509.968262 314.992065,509.968262 338.962738,509.547729 
M268.000000,417.490906 
	C268.000000,422.154144 268.000000,426.817413 268.000000,432.198517 
	C278.540619,426.597778 289.619385,425.904175 300.938690,425.917145 
	C314.684753,425.932922 328.476471,425.869080 342.154602,424.721313 
	C347.224640,424.295898 352.640137,421.512115 356.814056,418.365814 
	C363.462952,413.353882 363.894684,405.538544 364.134277,397.621765 
	C364.564178,383.416168 354.175171,375.308350 341.482941,375.104553 
	C318.495697,374.735504 295.498322,374.995911 272.505157,375.009796 
	C271.069214,375.010651 269.633331,375.152191 268.000000,375.238770 
	C268.000000,389.212830 268.000000,402.853302 268.000000,417.490906 
z"/>
<path fill="currentColor" opacity="1.000000" stroke="none" 
	d="
M46.672440,424.198792 
	C37.337856,403.662323 41.717617,378.236053 57.986340,362.325195 
	C72.620644,348.012848 89.789200,341.290405 110.069672,340.893951 
	C125.905983,340.584320 141.270508,342.313385 156.108322,347.983673 
	C168.380142,352.673370 179.104782,359.782928 188.372894,369.033325 
	C189.217712,369.876556 189.538452,372.578674 188.863953,373.398468 
	C183.652924,379.731964 178.136551,385.814209 172.371109,392.364807 
	C169.170212,390.021149 166.089981,387.784607 163.029297,385.521606 
	C150.116623,375.974243 135.974747,369.915710 119.605431,369.982330 
	C111.438080,370.015594 103.317024,369.670441 95.477982,372.945648 
	C83.506828,377.947296 73.911751,388.017242 73.989510,400.055420 
	C74.045853,408.776367 78.648476,415.069336 88.322945,417.864624 
	C94.166412,419.553009 100.335495,420.356628 106.417465,420.930603 
	C122.717461,422.469025 139.232758,422.586151 155.317047,425.308868 
	C171.424026,428.035431 186.293167,434.944061 193.469223,451.154388 
	C202.240128,470.967346 201.334106,496.399597 186.343094,514.369568 
	C175.073181,527.878967 160.136642,534.276611 144.029617,538.972412 
	C130.047867,543.048584 115.543091,543.029419 101.381920,541.718506 
	C83.171547,540.032776 66.449905,532.995911 52.081730,521.429993 
	C45.195072,515.886475 39.059437,509.410034 32.321434,503.110962 
	C39.105331,496.707031 45.254684,491.018646 51.256489,485.178650 
	C53.633984,482.865295 54.884602,484.508392 56.561413,486.030029 
	C62.519188,491.436432 68.047539,497.542053 74.711479,501.892487 
	C85.330849,508.825256 97.005112,513.122498 110.194664,513.155640 
	C123.223289,513.188354 135.987656,512.243347 147.924332,506.901337 
	C164.753555,499.369812 175.188309,483.309631 165.435303,465.007416 
	C161.579529,457.771790 154.423050,454.334930 146.885315,453.200989 
	C137.023087,451.717346 126.927902,451.858307 116.964149,450.955780 
	C101.477669,449.552948 85.725380,450.227448 70.853867,444.106384 
	C60.758385,439.951172 52.412697,434.070831 46.672440,424.198792 
z"/>
<path fill="currentColor" opacity="1.000000" stroke="none" 
	d="
M632.757690,505.737305 
	C642.064392,493.430817 651.090881,481.370148 660.169495,469.348846 
	C668.571289,458.223541 677.037659,447.146973 685.451477,436.030670 
	C686.553162,434.575165 686.691589,433.453064 685.336731,431.593323 
	C673.639465,415.536957 662.196533,399.295654 650.628235,383.144989 
	C641.894531,370.951752 633.088318,358.810516 623.849915,346.002228 
	C635.645813,346.002228 646.854492,345.951599 658.060791,346.090302 
	C659.045654,346.102448 660.285095,347.155121 660.951904,348.059540 
	C675.162537,367.332672 689.301025,386.658936 703.488708,405.949005 
	C704.137207,406.830780 705.114685,407.470551 706.149841,408.415436 
	C715.918091,395.449677 725.477234,382.811798 734.978455,370.130524 
	C740.313110,363.010315 745.408203,355.703888 750.947571,348.749268 
	C752.146851,347.243652 754.770142,346.168976 756.767517,346.120117 
	C767.257141,345.863403 777.756409,346.000000 789.254700,346.000000 
	C785.548157,351.211426 782.261658,356.004791 778.800598,360.668549 
	C764.902893,379.394989 750.946838,398.078064 737.022461,416.784637 
	C733.546875,421.454010 730.282898,426.295349 726.577393,430.772675 
	C724.835266,432.877655 724.874695,433.973999 726.510620,436.180878 
	C738.159668,451.895416 749.550537,467.800995 761.110657,483.582001 
	C772.684021,499.380920 784.365234,515.100830 795.981323,530.868469 
	C797.757935,533.280029 799.438660,535.762207 801.718445,538.999329 
	C789.224976,538.999329 777.649475,539.034424 766.075378,538.922302 
	C765.284302,538.914673 764.312805,537.946594 763.746582,537.185974 
	C752.147217,521.604004 740.544922,506.023712 729.050232,490.364532 
	C721.416321,479.964783 713.949402,469.442383 706.087830,458.530914 
	C700.954651,465.063446 695.872986,471.292542 691.048828,477.715027 
	C677.534973,495.705994 663.925964,513.632080 650.798706,531.902893 
	C646.771423,537.508301 642.508972,539.784241 635.540955,539.181152 
	C626.834778,538.427551 618.013733,539.000000 607.833740,539.000000 
	C616.521790,527.376709 624.510986,516.688477 632.757690,505.737305 
z"/>
<path fill="currentColor" opacity="1.000000" stroke="none" 
	d="
M525.000000,442.000000 
	C525.000000,474.473938 525.000000,506.447876 525.000000,538.710693 
	C515.720215,538.710693 506.647797,538.710693 497.179596,538.710693 
	C497.179596,484.380920 497.179596,429.979980 497.179596,375.182312 
	C474.054047,375.182312 451.314819,375.182312 428.289032,375.182312 
	C428.289032,365.386047 428.289032,355.980377 428.289032,346.286041 
	C482.620117,346.286041 537.020081,346.286041 591.710205,346.286041 
	C591.710205,355.612427 591.710205,365.018127 591.710205,374.824341 
	C569.714172,374.824341 547.641418,374.824341 525.000000,374.824341 
	C525.000000,397.311523 525.000000,419.405762 525.000000,442.000000 
z"/>
<path fill="currentColor" opacity="1.000000" stroke="none" 
	d="
M969.985962,346.000000 
	C974.128967,346.000000 977.775085,346.000000 982.000000,346.000000 
	C982.000000,350.960724 982.000000,355.726379 982.000000,360.492035 
	C982.000000,365.136597 982.000000,369.781128 982.000000,374.822021 
	C959.716370,374.822021 937.643677,374.822021 915.179932,374.822021 
	C915.179932,429.618591 915.179932,484.019867 915.179932,538.710083 
	C905.721130,538.710083 896.648926,538.710083 887.180176,538.710083 
	C887.180176,484.381653 887.180176,429.980377 887.180176,375.182190 
	C864.053833,375.182190 841.314575,375.182190 818.288818,375.182190 
	C818.288818,365.385651 818.288818,355.979919 818.288818,346.000000 
	C868.642883,346.000000 919.065979,346.000000 969.985962,346.000000 
z"/>
<path fill="none" opacity="1.000000" stroke="none" 
	d="
M338.542297,509.757996 
	C314.992065,509.968262 291.862274,509.968262 268.385132,509.968262 
	C268.257690,508.894226 268.018860,507.809204 268.016846,506.723724 
	C267.991333,493.078430 268.106140,479.431610 267.916077,465.788879 
	C267.874969,462.838593 268.725861,460.917023 271.436981,460.228912 
	C278.733093,458.377258 286.028931,455.565399 293.418610,455.235718 
	C310.192291,454.487396 327.029114,454.713440 343.826416,455.118439 
	C352.488342,455.327301 360.429565,457.980011 367.048798,464.395172 
	C377.731720,474.748810 375.717804,493.413239 363.030640,502.065887 
	C355.677368,507.080780 347.591370,509.008179 338.542297,509.757996 
z"/>
<path fill="none" opacity="1.000000" stroke="none" 
	d="
M268.000000,416.992340 
	C268.000000,402.853302 268.000000,389.212830 268.000000,375.238770 
	C269.633331,375.152191 271.069214,375.010651 272.505157,375.009796 
	C295.498322,374.995911 318.495697,374.735504 341.482941,375.104553 
	C354.175171,375.308350 364.564178,383.416168 364.134277,397.621765 
	C363.894684,405.538544 363.462952,413.353882 356.814056,418.365814 
	C352.640137,421.512115 347.224640,424.295898 342.154602,424.721313 
	C328.476471,425.869080 314.684753,425.932922 300.938690,425.917145 
	C289.619385,425.904175 278.540619,426.597778 268.000000,432.198517 
	C268.000000,426.817413 268.000000,422.154144 268.000000,416.992340 
z"/>
</svg>